<svg width="21" height="20" viewBox="0 0 21 20" fill="none" xmlns="http://www.w3.org/2000/svg">
<g clip-path="url(#clip0_425_6201)">
<path fill-rule="evenodd" clip-rule="evenodd" d="M14.0127 16.8223C14.2804 16.8612 14.542 16.8807 14.7963 16.8807C17.0814 16.8807 18.7994 15.3279 19.1768 12.8223L20.1604 6.23771C20.5789 3.45207 19.065 1.30951 16.3932 0.906429L11.8288 0.219353L11.8276 0.218737L11.8264 0.218122C9.14975 -0.171232 7.08034 1.43181 6.66294 4.21822L5.67832 10.8028C5.25986 13.5884 6.77473 15.732 9.44657 16.1341L14.0127 16.8223ZM15.6264 7.9911C15.6633 7.99622 15.7002 7.9993 15.7371 7.9993C16.1135 7.9993 16.4417 7.72237 16.4971 7.3398C16.5587 6.91929 16.2674 6.52955 15.8459 6.46903L11.2356 5.80134C10.8089 5.74083 10.4253 6.03314 10.3648 6.45262C10.3033 6.87314 10.5946 7.26288 11.0151 7.32442L15.6264 7.9911ZM13.253 11.4167C13.29 11.4219 13.3269 11.4249 13.3638 11.4249C13.7402 11.4249 14.0684 11.149 14.1238 10.7655C14.1853 10.3449 13.8941 9.9552 13.4725 9.89468L10.7074 9.49366C10.2889 9.43725 9.89611 9.7234 9.83559 10.1449C9.77508 10.5655 10.0664 10.9552 10.4869 11.0157L13.253 11.4167Z" fill="#2E1401"/>
<path d="M11.8722 18.0552L9.21641 17.656C5.69124 17.1237 3.61123 14.2119 4.15687 10.574L5.14148 3.99037C5.15909 3.87283 5.04719 3.77547 4.93427 3.81257L3.46115 4.29657C2.2355 4.69862 1.31448 5.4535 0.798582 6.48016C0.259095 7.55093 0.206787 8.87089 0.647812 10.195L2.72474 16.514C3.42422 18.6278 5.01602 19.8401 6.91653 19.8401C7.42115 19.8401 7.9473 19.755 8.48471 19.5776L11.9057 18.4529C12.1111 18.3855 12.0859 18.0874 11.8722 18.0552Z" fill="#2E1401"/>
</g>
<defs>
<clipPath id="clip0_425_6201">
<rect width="20.7692" height="20" rx="3.84615" fill="white"/>
</clipPath>
</defs>
</svg>
