<svg width="193" height="40" viewBox="0 0 193 40" fill="none" xmlns="http://www.w3.org/2000/svg">
<mask id="path-1-inside-1_350_2592" fill="white">
<path d="M0 20C0 8.95431 8.95431 0 20 0C31.0457 0 40 8.95431 40 20C40 31.0457 31.0457 40 20 40C8.95431 40 0 31.0457 0 20Z"/>
</mask>
<path d="M0 20C0 8.95431 8.95431 0 20 0C31.0457 0 40 8.95431 40 20C40 31.0457 31.0457 40 20 40C8.95431 40 0 31.0457 0 20Z" fill="#F8CB46"/>
<path d="M-1 20C-1 8.40202 8.40202 -1 20 -1H21C32.598 -1 42 8.40202 42 20H38C38 9.50659 29.9411 1 20 1C9.50659 1 1 9.50659 1 20H-1ZM42 20C42 32.1503 32.1503 42 20 42C8.40202 42 -1 32.598 -1 21L1 20C1 29.9411 9.50659 38 20 38C29.9411 38 38 29.9411 38 20H42ZM20 42C8.40202 42 -1 32.598 -1 21V20C-1 8.40202 8.40202 -1 20 -1V1C9.50659 1 1 9.50659 1 20C1 29.9411 9.50659 38 20 38V42ZM21 -1C32.598 -1 42 8.40202 42 20C42 32.1503 32.1503 42 20 42V38C29.9411 38 38 29.9411 38 20C38 9.50659 29.9411 1 20 1L21 -1Z" fill="#2E1401" mask="url(#path-1-inside-1_350_2592)"/>
<g clip-path="url(#clip0_350_2592)">
<path fill-rule="evenodd" clip-rule="evenodd" d="M23.628 26.8223C23.8957 26.8612 24.1572 26.8807 24.4115 26.8807C26.6967 26.8807 28.4146 25.3279 28.7921 22.8223L29.7757 16.2377C30.1941 13.4521 28.6803 11.3095 26.0085 10.9064L21.4441 10.2194L21.4428 10.2187L21.4416 10.2181C18.765 9.82877 16.6956 11.4318 16.2782 14.2182L15.2936 20.8028C14.8751 23.5884 16.39 25.732 19.0618 26.1341L23.628 26.8223ZM25.2416 17.9911C25.2785 17.9962 25.3154 17.9993 25.3524 17.9993C25.7288 17.9993 26.057 17.7224 26.1124 17.3398C26.1739 16.9193 25.8826 16.5295 25.4611 16.469L20.8508 15.8013C20.4242 15.7408 20.0406 16.0331 19.9801 16.4526C19.9185 16.8731 20.2098 17.2629 20.6303 17.3244L25.2416 17.9911ZM22.8683 21.4167C22.9052 21.4219 22.9421 21.4249 22.979 21.4249C23.3554 21.4249 23.6837 21.149 23.739 20.7655C23.8006 20.3449 23.5093 19.9552 23.0878 19.8947L20.3226 19.4937C19.9042 19.4372 19.5113 19.7234 19.4508 20.1449C19.3903 20.5655 19.6816 20.9552 20.1021 21.0157L22.8683 21.4167Z" fill="#2E1401"/>
<path d="M21.4874 28.0552L18.8316 27.656C15.3065 27.1237 13.2265 24.2119 13.7721 20.574L14.7567 13.9904C14.7743 13.8728 14.6624 13.7755 14.5495 13.8126L13.0764 14.2966C11.8507 14.6986 10.9297 15.4535 10.4138 16.4802C9.87433 17.5509 9.82202 18.8709 10.263 20.195L12.34 26.514C13.0395 28.6278 14.6313 29.8401 16.5318 29.8401C17.0364 29.8401 17.5625 29.755 18.0999 29.5776L21.521 28.4529C21.7263 28.3855 21.7012 28.0874 21.4874 28.0552Z" fill="#2E1401"/>
</g>
<path d="M65.672 28.5V17.316L61.304 25.644H59.456L55.088 17.316V28.5H51.776V11.46H55.328L60.368 21.156L65.456 11.46H68.984V28.5H65.672ZM77.3707 28.74C76.3627 28.74 75.4507 28.572 74.6347 28.236C73.8187 27.884 73.1227 27.412 72.5467 26.82C71.9707 26.212 71.5227 25.524 71.2027 24.756C70.8987 23.972 70.7467 23.148 70.7467 22.284C70.7467 21.084 71.0107 19.988 71.5387 18.996C72.0827 18.004 72.8507 17.212 73.8427 16.62C74.8507 16.012 76.0347 15.708 77.3947 15.708C78.7707 15.708 79.9467 16.012 80.9227 16.62C81.8987 17.212 82.6427 18.004 83.1547 18.996C83.6827 19.972 83.9467 21.028 83.9467 22.164C83.9467 22.356 83.9387 22.556 83.9227 22.764C83.9067 22.956 83.8907 23.116 83.8747 23.244H74.1547C74.2187 23.884 74.4027 24.444 74.7067 24.924C75.0267 25.404 75.4267 25.772 75.9067 26.028C76.4027 26.268 76.9307 26.388 77.4907 26.388C78.1307 26.388 78.7307 26.236 79.2907 25.932C79.8667 25.612 80.2587 25.196 80.4667 24.684L83.2267 25.452C82.9227 26.092 82.4827 26.66 81.9067 27.156C81.3467 27.652 80.6827 28.044 79.9147 28.332C79.1467 28.604 78.2987 28.74 77.3707 28.74ZM74.0827 21.204H80.6587C80.5947 20.564 80.4107 20.012 80.1067 19.548C79.8187 19.068 79.4347 18.7 78.9547 18.444C78.4747 18.172 77.9387 18.036 77.3467 18.036C76.7707 18.036 76.2427 18.172 75.7627 18.444C75.2987 18.7 74.9147 19.068 74.6107 19.548C74.3227 20.012 74.1467 20.564 74.0827 21.204ZM104.962 28.5H101.746V21.444C101.746 20.452 101.57 19.724 101.218 19.26C100.882 18.78 100.41 18.54 99.8019 18.54C99.1779 18.54 98.5779 18.788 98.0019 19.284C97.4419 19.764 97.0419 20.396 96.8019 21.18V28.5H93.5859V21.444C93.5859 20.436 93.4099 19.7 93.0579 19.236C92.7219 18.772 92.2499 18.54 91.6419 18.54C91.0179 18.54 90.4179 18.78 89.8419 19.26C89.2819 19.74 88.8819 20.372 88.6419 21.156V28.5H85.4259V15.924H88.3299V18.252C88.8099 17.436 89.4499 16.812 90.2499 16.38C91.0499 15.932 91.9699 15.708 93.0099 15.708C94.0499 15.708 94.8579 15.964 95.4339 16.476C96.0259 16.988 96.4019 17.62 96.5619 18.372C97.0739 17.508 97.7219 16.852 98.5059 16.404C99.3059 15.94 100.202 15.708 101.194 15.708C101.978 15.708 102.61 15.852 103.09 16.14C103.586 16.412 103.97 16.788 104.242 17.268C104.514 17.732 104.698 18.26 104.794 18.852C104.906 19.444 104.962 20.044 104.962 20.652V28.5ZM113.09 28.74C112.066 28.74 111.146 28.572 110.33 28.236C109.514 27.884 108.818 27.404 108.242 26.796C107.682 26.188 107.25 25.492 106.946 24.708C106.642 23.924 106.49 23.1 106.49 22.236C106.49 21.356 106.642 20.524 106.946 19.74C107.25 18.956 107.682 18.26 108.242 17.652C108.818 17.044 109.514 16.572 110.33 16.236C111.146 15.884 112.066 15.708 113.09 15.708C114.114 15.708 115.026 15.884 115.826 16.236C116.642 16.572 117.338 17.044 117.914 17.652C118.49 18.26 118.922 18.956 119.21 19.74C119.514 20.524 119.666 21.356 119.666 22.236C119.666 23.1 119.514 23.924 119.21 24.708C118.922 25.492 118.49 26.188 117.914 26.796C117.354 27.404 116.666 27.884 115.85 28.236C115.034 28.572 114.114 28.74 113.09 28.74ZM109.802 22.236C109.802 22.972 109.946 23.628 110.234 24.204C110.522 24.764 110.914 25.204 111.41 25.524C111.906 25.844 112.466 26.004 113.09 26.004C113.698 26.004 114.25 25.844 114.746 25.524C115.242 25.188 115.634 24.74 115.922 24.18C116.226 23.604 116.378 22.948 116.378 22.212C116.378 21.492 116.226 20.844 115.922 20.268C115.634 19.692 115.242 19.244 114.746 18.924C114.25 18.604 113.698 18.444 113.09 18.444C112.466 18.444 111.906 18.612 111.41 18.948C110.914 19.268 110.522 19.716 110.234 20.292C109.946 20.852 109.802 21.5 109.802 22.236ZM120.637 19.86C120.637 18.82 120.821 17.804 121.189 16.812C121.573 15.804 122.125 14.892 122.845 14.076C123.565 13.244 124.445 12.588 125.485 12.108C126.525 11.612 127.709 11.364 129.037 11.364C130.605 11.364 131.957 11.708 133.093 12.396C134.245 13.084 135.101 13.98 135.661 15.084L133.117 16.836C132.829 16.196 132.453 15.692 131.989 15.324C131.525 14.94 131.029 14.676 130.501 14.532C129.973 14.372 129.453 14.292 128.941 14.292C128.109 14.292 127.381 14.46 126.757 14.796C126.149 15.132 125.637 15.572 125.221 16.116C124.805 16.66 124.493 17.268 124.285 17.94C124.093 18.612 123.997 19.284 123.997 19.956C123.997 20.708 124.117 21.436 124.357 22.14C124.597 22.828 124.933 23.444 125.365 23.988C125.813 24.516 126.341 24.94 126.949 25.26C127.573 25.564 128.253 25.716 128.989 25.716C129.517 25.716 130.053 25.628 130.597 25.452C131.141 25.276 131.645 24.996 132.109 24.612C132.573 24.228 132.933 23.732 133.189 23.124L135.901 24.684C135.565 25.532 135.013 26.252 134.245 26.844C133.493 27.436 132.645 27.884 131.701 28.188C130.757 28.492 129.821 28.644 128.893 28.644C127.677 28.644 126.565 28.396 125.557 27.9C124.549 27.388 123.677 26.716 122.941 25.884C122.221 25.036 121.653 24.092 121.237 23.052C120.837 21.996 120.637 20.932 120.637 19.86ZM136.466 24.78C136.466 23.964 136.69 23.252 137.138 22.644C137.602 22.02 138.242 21.54 139.058 21.204C139.874 20.868 140.81 20.7 141.866 20.7C142.394 20.7 142.93 20.74 143.474 20.82C144.018 20.9 144.49 21.028 144.89 21.204V20.532C144.89 19.732 144.65 19.116 144.17 18.684C143.706 18.252 143.01 18.036 142.082 18.036C141.394 18.036 140.738 18.156 140.114 18.396C139.49 18.636 138.834 18.988 138.146 19.452L137.114 17.34C137.946 16.796 138.794 16.388 139.658 16.116C140.538 15.844 141.458 15.708 142.418 15.708C144.21 15.708 145.602 16.156 146.594 17.052C147.602 17.948 148.106 19.228 148.106 20.892V24.9C148.106 25.236 148.162 25.476 148.274 25.62C148.402 25.764 148.602 25.852 148.874 25.884V28.5C148.586 28.548 148.322 28.588 148.082 28.62C147.858 28.652 147.666 28.668 147.506 28.668C146.866 28.668 146.378 28.524 146.042 28.236C145.722 27.948 145.522 27.596 145.442 27.18L145.37 26.532C144.826 27.236 144.146 27.78 143.33 28.164C142.514 28.548 141.682 28.74 140.834 28.74C140.002 28.74 139.25 28.572 138.578 28.236C137.922 27.884 137.402 27.412 137.018 26.82C136.65 26.212 136.466 25.532 136.466 24.78ZM144.29 25.428C144.466 25.236 144.61 25.044 144.722 24.852C144.834 24.66 144.89 24.484 144.89 24.324V23.052C144.506 22.892 144.09 22.772 143.642 22.692C143.194 22.596 142.77 22.548 142.37 22.548C141.538 22.548 140.85 22.732 140.306 23.1C139.778 23.452 139.514 23.924 139.514 24.516C139.514 24.836 139.602 25.14 139.778 25.428C139.954 25.716 140.21 25.948 140.546 26.124C140.882 26.3 141.282 26.388 141.746 26.388C142.226 26.388 142.698 26.3 143.162 26.124C143.626 25.932 144.002 25.7 144.29 25.428ZM158.119 18.708C157.143 18.708 156.271 18.9 155.503 19.284C154.735 19.652 154.183 20.188 153.847 20.892V28.5H150.631V15.924H153.583V18.612C154.031 17.748 154.599 17.068 155.287 16.572C155.975 16.076 156.703 15.804 157.471 15.756C157.647 15.756 157.783 15.756 157.879 15.756C157.975 15.756 158.055 15.764 158.119 15.78V18.708ZM166.968 27.852C166.696 27.964 166.368 28.092 165.984 28.236C165.6 28.38 165.184 28.492 164.736 28.572C164.304 28.668 163.864 28.716 163.416 28.716C162.824 28.716 162.28 28.612 161.784 28.404C161.288 28.196 160.888 27.868 160.584 27.42C160.296 26.956 160.152 26.356 160.152 25.62V18.396H158.496V15.924H160.152V11.844H163.368V15.924H166.008V18.396H163.368V24.54C163.384 24.972 163.504 25.284 163.728 25.476C163.952 25.668 164.232 25.764 164.568 25.764C164.904 25.764 165.232 25.708 165.552 25.596C165.872 25.484 166.128 25.388 166.32 25.308L166.968 27.852ZM173.854 28.74C172.846 28.74 171.934 28.572 171.118 28.236C170.302 27.884 169.606 27.412 169.03 26.82C168.454 26.212 168.006 25.524 167.686 24.756C167.382 23.972 167.23 23.148 167.23 22.284C167.23 21.084 167.494 19.988 168.022 18.996C168.566 18.004 169.334 17.212 170.326 16.62C171.334 16.012 172.518 15.708 173.878 15.708C175.254 15.708 176.43 16.012 177.406 16.62C178.382 17.212 179.126 18.004 179.638 18.996C180.166 19.972 180.43 21.028 180.43 22.164C180.43 22.356 180.422 22.556 180.406 22.764C180.39 22.956 180.374 23.116 180.358 23.244H170.638C170.702 23.884 170.886 24.444 171.19 24.924C171.51 25.404 171.91 25.772 172.39 26.028C172.886 26.268 173.414 26.388 173.974 26.388C174.614 26.388 175.214 26.236 175.774 25.932C176.35 25.612 176.742 25.196 176.95 24.684L179.71 25.452C179.406 26.092 178.966 26.66 178.39 27.156C177.83 27.652 177.166 28.044 176.398 28.332C175.63 28.604 174.782 28.74 173.854 28.74ZM170.566 21.204H177.142C177.078 20.564 176.894 20.012 176.59 19.548C176.302 19.068 175.918 18.7 175.438 18.444C174.958 18.172 174.422 18.036 173.83 18.036C173.254 18.036 172.726 18.172 172.246 18.444C171.782 18.7 171.398 19.068 171.094 19.548C170.806 20.012 170.63 20.564 170.566 21.204ZM186.542 28.74C185.47 28.74 184.446 28.564 183.47 28.212C182.494 27.86 181.654 27.34 180.95 26.652L182.102 24.564C182.854 25.172 183.59 25.62 184.31 25.908C185.046 26.196 185.75 26.34 186.422 26.34C187.046 26.34 187.542 26.228 187.91 26.004C188.294 25.78 188.486 25.444 188.486 24.996C188.486 24.692 188.382 24.46 188.174 24.3C187.966 24.124 187.662 23.972 187.262 23.844C186.878 23.716 186.406 23.572 185.846 23.412C184.918 23.108 184.142 22.812 183.518 22.524C182.894 22.236 182.422 21.876 182.102 21.444C181.798 20.996 181.646 20.428 181.646 19.74C181.646 18.908 181.854 18.196 182.27 17.604C182.702 16.996 183.294 16.524 184.046 16.188C184.814 15.852 185.71 15.684 186.734 15.684C187.63 15.684 188.478 15.828 189.278 16.116C190.078 16.388 190.806 16.836 191.462 17.46L190.166 19.5C189.526 19.004 188.918 18.644 188.342 18.42C187.766 18.18 187.182 18.06 186.59 18.06C186.254 18.06 185.934 18.1 185.63 18.18C185.342 18.26 185.102 18.396 184.91 18.588C184.734 18.764 184.646 19.02 184.646 19.356C184.646 19.66 184.726 19.9 184.886 20.076C185.062 20.236 185.318 20.38 185.654 20.508C186.006 20.636 186.43 20.78 186.926 20.94C187.934 21.228 188.782 21.524 189.47 21.828C190.174 22.132 190.702 22.508 191.054 22.956C191.406 23.388 191.582 23.988 191.582 24.756C191.582 26.004 191.126 26.98 190.214 27.684C189.302 28.388 188.078 28.74 186.542 28.74Z" fill="#2E1401"/>
<defs>
<clipPath id="clip0_350_2592">
<rect x="9.61523" y="10" width="20.7692" height="20" rx="3.84615" fill="white"/>
</clipPath>
</defs>
</svg>
