<svg width="32" height="32" viewBox="0 0 32 32" fill="none" xmlns="http://www.w3.org/2000/svg">
<g clip-path="url(#clip0_540_4872)">
<mask id="mask0_540_4872" style="mask-type:luminance" maskUnits="userSpaceOnUse" x="0" y="0" width="32" height="32">
<path d="M32 0H0V32H32V0Z" fill="white"/>
</mask>
<g mask="url(#mask0_540_4872)">
<path d="M0 16C0 7.16345 7.16345 0 16 0C24.8366 0 32 7.16345 32 16C32 24.8366 24.8366 32 16 32C7.16345 32 0 24.8366 0 16Z" fill="#F8CB46"/>
<mask id="mask1_540_4872" style="mask-type:luminance" maskUnits="userSpaceOnUse" x="0" y="0" width="32" height="32">
<path d="M0 16C0 7.16345 7.16345 0 16 0C24.8366 0 32 7.16345 32 16C32 24.8366 24.8366 32 16 32C7.16345 32 0 24.8366 0 16Z" fill="white"/>
</mask>
<g mask="url(#mask1_540_4872)">
<path d="M-0.799805 16C-0.799805 6.72163 6.72181 -0.799988 16.0002 -0.799988H16.8002C26.0786 -0.799988 33.6002 6.72163 33.6002 16H30.4002C30.4002 7.60528 23.9531 0.800012 16.0002 0.800012C7.60547 0.800012 0.800195 7.60528 0.800195 16H-0.799805ZM33.6002 16C33.6002 25.7203 25.7204 33.6 16.0002 33.6C6.72181 33.6 -0.799805 26.0784 -0.799805 16.8L0.800195 16C0.800195 23.9529 7.60547 30.4 16.0002 30.4C23.9531 30.4 30.4002 23.9529 30.4002 16H33.6002ZM16.0002 33.6C6.72181 33.6 -0.799805 26.0784 -0.799805 16.8V16C-0.799805 6.72163 6.72181 -0.799988 16.0002 -0.799988V0.800012C7.60547 0.800012 0.800195 7.60528 0.800195 16C0.800195 23.9529 7.60547 30.4 16.0002 30.4V33.6ZM16.8002 -0.799988C26.0786 -0.799988 33.6002 6.72163 33.6002 16C33.6002 25.7203 25.7204 33.6 16.0002 33.6V30.4C23.9531 30.4 30.4002 23.9529 30.4002 16C30.4002 7.60528 23.9531 0.800012 16.0002 0.800012L16.8002 -0.799988Z" fill="#2E1401"/>
</g>
<mask id="mask2_540_4872" style="mask-type:luminance" maskUnits="userSpaceOnUse" x="7" y="8" width="18" height="16">
<path d="M21.2308 8H10.7693C9.06997 8 7.69238 9.37758 7.69238 11.0769V20.9231C7.69238 22.6224 9.06997 24 10.7693 24H21.2308C22.9302 24 24.3077 22.6224 24.3077 20.9231V11.0769C24.3077 9.37758 22.9302 8 21.2308 8Z" fill="white"/>
</mask>
<g mask="url(#mask2_540_4872)">
<path fill-rule="evenodd" clip-rule="evenodd" d="M18.9024 21.4578C19.1165 21.489 19.3257 21.5046 19.5292 21.5046C21.3573 21.5046 22.7317 20.2623 23.0337 18.2578L23.8205 12.9902C24.1553 10.7617 22.9442 9.04759 20.8068 8.72511L17.1553 8.17552L17.1542 8.17496L17.1533 8.17447C15.012 7.86301 13.3565 9.14543 13.0225 11.3746L12.2349 16.6422C11.9001 18.8707 13.112 20.5856 15.2494 20.9073L18.9024 21.4578ZM20.1933 14.3929C20.2228 14.397 20.2523 14.3994 20.2819 14.3994C20.583 14.3994 20.8456 14.1779 20.8899 13.8718C20.9391 13.5354 20.7061 13.2236 20.3689 13.1752L16.6806 12.641C16.3393 12.5926 16.0325 12.8265 15.9841 13.1621C15.9348 13.4985 16.1678 13.8103 16.5042 13.8595L20.1933 14.3929ZM18.2946 17.1334C18.3241 17.1375 18.3537 17.1399 18.3832 17.1399C18.6843 17.1399 18.9469 16.9192 18.9912 16.6124C19.0405 16.2759 18.8074 15.9642 18.4702 15.9158L16.2581 15.595C15.9233 15.5498 15.609 15.7787 15.5606 16.1159C15.5122 16.4524 15.7453 16.7642 16.0817 16.8126L18.2946 17.1334Z" fill="#2E1401"/>
<path d="M17.1901 22.4442L15.0655 22.1248C12.2454 21.699 10.5814 19.3695 11.0179 16.4592L11.8056 11.1923C11.8196 11.0982 11.7301 11.0204 11.6398 11.0501L10.4613 11.4373C9.48076 11.7589 8.74396 12.3628 8.33124 13.1842C7.89967 14.0407 7.85782 15.0967 8.2106 16.156L9.8722 21.2112C10.4318 22.9022 11.7052 23.8721 13.2256 23.8721C13.6293 23.8721 14.0502 23.804 14.4801 23.6621L17.217 22.7623C17.3812 22.7084 17.3612 22.4699 17.1901 22.4442Z" fill="#2E1401"/>
</g>
</g>
</g>
<defs>
<clipPath id="clip0_540_4872">
<rect width="32" height="32" fill="white"/>
</clipPath>
</defs>
</svg>
